<svg width="32" height="32" xmlns="http://www.w3.org/2000/svg" style="fill-rule:evenodd;clip-rule:evenodd;stroke-linejoin:round;stroke-miterlimit:2;" version="1.1" xml:space="preserve" clip-rule="evenodd">
 <g>
  <title>background</title>
  <rect x="-1" y="-1" width="34" height="34" id="canvas_background" fill="none"/>
 </g>

 <g>
  <title>Layer 1</title>
  <rect stroke="#666666" stroke-width="1.5" fill="none" x="1.812813" y="1.806946" width="28.374393" height="27.999415" id="svg_2"/>
  <path fill="#633f2a" d="m24.389266,9.415744c-0.350458,-0.164203 -0.304478,-0.263636 0.547591,-1.184096c0.430254,-0.464785 0.782276,-0.85857 0.782276,-0.875078c0,-0.016507 -1.188078,-0.030013 -2.640181,-0.030013l-2.640181,0l0,-0.870495l0,-0.870495l2.661106,0c2.051862,0 2.638199,-0.026224 2.561066,-0.114539c-0.055021,-0.062996 -0.43035,-0.481029 -0.834063,-0.92896c-0.761005,-0.844361 -0.760766,-1.070798 0.001176,-1.140985c0.37919,-0.034929 6.282725,2.64879 6.485642,2.948344c-1.966416,1.06957 -4.31695,2.189136 -6.482174,3.176276c-0.114167,0 -0.31318,-0.049481 -0.442256,-0.109958l0,0l-0.000002,-0.000001z" id="svg_3" transform="rotate(-46.653526306152344 25.876235961914062,6.463224411010743) "/>
  <path fill="#633f2a" d="m4.76438,9.165739c-0.350458,-0.164202 -0.304478,-0.263635 0.547591,-1.184095c0.430253,-0.464785 0.782276,-0.85857 0.782276,-0.875078c0,-0.016507 -1.188078,-0.030014 -2.640181,-0.030014l-2.640181,0l0,-0.870495l0,-0.870495l2.661106,0c2.051862,0 2.638198,-0.026223 2.561065,-0.114539c-0.055021,-0.062996 -0.43035,-0.481029 -0.834063,-0.92896c-0.761005,-0.844361 -0.760766,-1.070798 0.001176,-1.140985c0.37919,-0.034929 6.282725,2.64879 6.485642,2.948344c-1.966416,1.06957 -4.31695,2.189136 -6.482174,3.176275c-0.114168,0 -0.31318,-0.049481 -0.442256,-0.109958l-0.000001,0z" id="svg_4" transform="rotate(-133.91064453125 6.251348495483399,6.213218688964844) "/>
  <path fill="#633f2a" d="m23.889276,27.915641c-0.350458,-0.164202 -0.304478,-0.263635 0.547591,-1.184095c0.430253,-0.464785 0.782276,-0.85857 0.782276,-0.875078c0,-0.016507 -1.188078,-0.030014 -2.640181,-0.030014l-2.640181,0l0,-0.870495l0,-0.870495l2.661106,0c2.051862,0 2.638198,-0.026223 2.561065,-0.114539c-0.055021,-0.062996 -0.43035,-0.481029 -0.834063,-0.92896c-0.761005,-0.844361 -0.760766,-1.070798 0.001176,-1.140985c0.37919,-0.034929 6.282725,2.64879 6.485642,2.948344c-1.966416,1.06957 -4.31695,2.189136 -6.482174,3.176275c-0.114168,0 -0.31318,-0.049481 -0.442256,-0.109958l-0.000001,0z" id="svg_5" transform="rotate(46.62715530395508 25.376247406005852,24.96312332153321) "/>
  <path fill="#633f2a" d="m5.139374,27.790642c-0.350458,-0.164202 -0.304478,-0.263635 0.547591,-1.184095c0.430253,-0.464785 0.782276,-0.85857 0.782276,-0.875078c0,-0.016507 -1.188078,-0.030014 -2.640181,-0.030014l-2.640181,0l0,-0.870495l0,-0.870495l2.661106,0c2.051862,0 2.638198,-0.026223 2.561065,-0.114539c-0.055021,-0.062996 -0.43035,-0.481029 -0.834063,-0.92896c-0.761005,-0.844361 -0.760766,-1.070798 0.001176,-1.140985c0.37919,-0.034929 6.282725,2.64879 6.485642,2.948344c-1.966416,1.06957 -4.31695,2.189136 -6.482174,3.176275c-0.114168,0 -0.31318,-0.049481 -0.442256,-0.109958l-0.000001,0z" id="svg_6" transform="rotate(135.33848571777344 6.626342773437499,24.838123321533203) "/>
  <rect stroke="#e50d0d" fill="#ffffff" x="9.270855" y="9.306656" width="13.624968" height="12.999971" id="svg_1" stroke-width="2"/>
 </g>
</svg>