<?xml version="1.0"?>
<svg width="395" height="395" xmlns="http://www.w3.org/2000/svg" xmlns:svg="http://www.w3.org/2000/svg" version="1.1" xml:space="preserve">
 <g class="layer">
  <title>Layer 1</title>
  <g id="svg_1">
   <path d="m169.86,161.32c-7.79,17.05 -13.9,34.17 -18.66,52.37c-0.23,0.87 -0.84,1.59 -1.7,2.03c-0.52,0.27 -1.11,0.4 -1.72,0.4c-0.36,0 -0.71,-0.05 -1.07,-0.14l-53.34,-14.93c-0.93,-0.26 -1.72,-0.87 -2.13,-1.67c-0.41,-0.8 -0.45,-1.72 -0.05,-2.54l3.18,-6.9c15.6,-33.72 38.94,-67.14 71.32,-102.17c15.33,-16.65 32.79,-33.32 51.89,-49.52c16.69,-14.17 32.15,-26.08 47.27,-36.43c1.47,-1.01 3.54,-0.82 4.75,0.43c2.61,2.7 8.1,8.41 8.1,8.41c1.18,1.24 1.11,3.07 -0.14,4.25c-0.02,0 -1.52,1.38 -1.97,1.82c-1.54,1.5 -3.09,2.99 -4.61,4.52c-2.98,2.96 -5.99,6.02 -9.15,9.36c-7.29,7.66 -14.74,15.94 -22.12,24.62c-15.14,17.81 -28.81,36.01 -40.65,54.12c-0.88,1.34 -1.7,2.65 -2.56,3.97l187.78,110.48c9.69,5.7 12.4,17.39 6.08,26.13c-4.02,5.53 -10.72,8.54 -17.57,8.54c-3.93,0 -7.92,-1 -11.45,-3.07l-184.4,-108.52c-2.54,4.88 -4.9,9.69 -7.08,14.43z" fill="#7c3a01" id="svg_3"/>
   <polygon fill="#3f3f3f" id="svg_4" points="141.3738555908203,275.4206778750595 219.60968017578125,314.3435599447221 319.6370849609375,394.87701416015625 0,394.87701416015625 0,130.4336649552597 70.60025787353516,164.5164617474984 "/>
   <g id="svg_24" transform="matrix(-1.00488 0.281077 0.297565 0.949201 715.887 -37.5048)">
    <polygon fill="#aa7305" id="svg_5" points="516.1379547119141,138.59357452392578 479.63574981689453,124.39862823486328 476.3852844238281,145.22367095947266 485.1822509765625,177.51293182373047 512.7059326171875,167.19078826904297 "/>
    <polygon fill="#aa7305" id="svg_6" points="467.9369812011719,230.0486068725586 493.7205505371094,245.3517074584961 508.2455749511719,233.64070892333984 503.10235595703125,194.21822357177734 471.06050872802734,200.48458099365234 "/>
    <polygon fill="#aa7305" id="svg_7" points="572.9511108398438,103.2625961303711 554.1071166992188,106.9470443725586 552.2673797607422,124.33831024169922 567.4335327148438,133.34305572509766 575.9782257080078,126.46038055419922 "/>
    <polygon fill="#aa7305" id="svg_8" points="596.3807678222656,93.50777435302734 591.6922607421875,117.59325408935547 601.3119049072266,127.58173370361328 624.1759948730469,116.3701400756836 614.7555847167969,90.89569854736328 "/>
    <polygon fill="#aa7305" id="svg_9" points="556.2296295166016,153.05614471435547 555.1756134033203,162.9824447631836 563.8295745849609,168.11620330810547 568.7044677734375,164.18297576904297 566.9739837646484,150.9566879272461 "/>
    <polygon fill="#aa7305" id="svg_10" points="525.8812866210938,171.60839080810547 532.7678375244141,181.5233383178711 540.6393127441406,177.67113494873047 540.1492614746094,166.31066131591797 534.8244934082031,163.29344940185547 "/>
   </g>
  </g>
 </g>

</svg>