<svg xmlns="http://www.w3.org/2000/svg" xmlns:xlink="http://www.w3.org/1999/xlink" version="1.1" width="256" height="256" viewBox="0 0 256 256" xml:space="preserve">

<defs>
</defs>
<g style="stroke: none; stroke-width: 0; stroke-dasharray: none; stroke-linecap: butt; stroke-linejoin: miter; stroke-miterlimit: 10; fill: none; fill-rule: nonzero; opacity: 1;" transform="translate(1.4065934065934016 1.4065934065934016) scale(2.81 2.81)" >
	<path d="M 45 90 c -1.415 0 -2.725 -0.748 -3.444 -1.966 l -4.385 -7.417 C 28.167 65.396 19.664 51.02 16.759 45.189 c -2.112 -4.331 -3.175 -8.955 -3.175 -13.773 C 13.584 14.093 27.677 0 45 0 c 17.323 0 31.416 14.093 31.416 31.416 c 0 4.815 -1.063 9.438 -3.157 13.741 c -0.025 0.052 -0.053 0.104 -0.08 0.155 c -2.961 5.909 -11.41 20.193 -20.353 35.309 l -4.382 7.413 C 47.725 89.252 46.415 90 45 90 z" style="stroke: none; stroke-width: 1; stroke-dasharray: none; stroke-linecap: butt; stroke-linejoin: miter; stroke-miterlimit: 10; fill: rgb(216,25,25); fill-rule: nonzero; opacity: 1;" transform=" matrix(1 0 0 1 0 0) " stroke-linecap="round" />
	<path d="M 45 8.7 c -11.916 0 -21.611 9.694 -21.611 21.61 c 0 11.916 9.695 21.61 21.611 21.61 c 11.915 0 21.61 -9.694 21.61 -21.61 C 66.61 18.394 56.915 8.7 45 8.7 z" style="stroke: none; stroke-width: 1; stroke-dasharray: none; stroke-linecap: butt; stroke-linejoin: miter; stroke-miterlimit: 10; fill: rgb(249,249,249); fill-rule: nonzero; opacity: 1;" transform=" matrix(1 0 0 1 0 0) " stroke-linecap="round" />
	<path d="M 29.085 33.31 h -7.17 c -1.657 0 -3 -1.343 -3 -3 s 1.343 -3 3 -3 h 7.17 c 1.657 0 3 1.343 3 3 S 30.742 33.31 29.085 33.31 z" style="stroke: none; stroke-width: 1; stroke-dasharray: none; stroke-linecap: butt; stroke-linejoin: miter; stroke-miterlimit: 10; fill: rgb(216,25,25); fill-rule: nonzero; opacity: 1;" transform=" matrix(1 0 0 1 0 0) " stroke-linecap="round" />
	<path d="M 68.085 33.31 h -7.17 c -1.657 0 -3 -1.343 -3 -3 s 1.343 -3 3 -3 h 7.17 c 1.657 0 3 1.343 3 3 S 69.742 33.31 68.085 33.31 z" style="stroke: none; stroke-width: 1; stroke-dasharray: none; stroke-linecap: butt; stroke-linejoin: miter; stroke-miterlimit: 10; fill: rgb(216,25,25); fill-rule: nonzero; opacity: 1;" transform=" matrix(1 0 0 1 0 0) " stroke-linecap="round" />
	<path d="M 45 56.396 c -1.657 0 -3 -1.343 -3 -3 v -7.171 c 0 -1.657 1.343 -3 3 -3 c 1.657 0 3 1.343 3 3 v 7.171 C 48 55.053 46.657 56.396 45 56.396 z" style="stroke: none; stroke-width: 1; stroke-dasharray: none; stroke-linecap: butt; stroke-linejoin: miter; stroke-miterlimit: 10; fill: rgb(216,25,25); fill-rule: nonzero; opacity: 1;" transform=" matrix(1 0 0 1 0 0) " stroke-linecap="round" />
	<path d="M 45 17.396 c -1.657 0 -3 -1.343 -3 -3 v -7.17 c 0 -1.657 1.343 -3 3 -3 c 1.657 0 3 1.343 3 3 v 7.17 C 48 16.052 46.657 17.396 45 17.396 z" style="stroke: none; stroke-width: 1; stroke-dasharray: none; stroke-linecap: butt; stroke-linejoin: miter; stroke-miterlimit: 10; fill: rgb(216,25,25); fill-rule: nonzero; opacity: 1;" transform=" matrix(1 0 0 1 0 0) " stroke-linecap="round" />
	<path d="M 45 26.31 c -2.206 0 -4 1.794 -4 4 c 0 2.206 1.794 4 4 4 c 2.205 0 4 -1.794 4 -4 C 49 28.105 47.205 26.31 45 26.31 z" style="stroke: none; stroke-width: 1; stroke-dasharray: none; stroke-linecap: butt; stroke-linejoin: miter; stroke-miterlimit: 10; fill: rgb(216,25,25); fill-rule: nonzero; opacity: 1;" transform=" matrix(1 0 0 1 0 0) " stroke-linecap="round" />
</g>
</svg>