<svg xmlns="http://www.w3.org/2000/svg" xmlns:xlink="http://www.w3.org/1999/xlink" version="1.1" width="128" height="128" viewBox="0 0 128 128" xml:space="preserve">
<desc>Created with Fabric.js 3.5.0</desc>
<defs>
</defs>
<rect x="0" y="0" width="100%" height="100%" fill="#ffffff"/>
<g transform="matrix(0.1272 0 0 0.1272 62.8356 62.8353)" id="731839">
<path style="stroke: none; stroke-width: 1; stroke-dasharray: none; stroke-linecap: butt; stroke-dashoffset: 0; stroke-linejoin: miter; stroke-miterlimit: 4; is-custom-font: none; font-file-url: none; fill: rgb(220,58,0); fill-rule: nonzero; opacity: 1;" vector-effect="non-scaling-stroke" transform=" translate(-500.0284, -500.0301)" d="M 39.7 331.6 c 0 0 86.3 -265.3 382.3 -315.5 c 0 0 -45.4 65.4 -88.6 169.5 c 0 0 -90.8 -9.9 -112 82.8 C 221.5 268.5 124.5 286 39.7 331.6 z M 223.7 321.8 c 0 0 -124.9 26.6 -205.1 85.9 c 0 0 -41.7 176.4 59 341.3 c 0 0 103.7 22.8 208.2 12.2 c 0 0 -0.7 -65.5 41.7 -98.2 c 0 0 -51.5 -132.9 -38.6 -274.3 C 288.8 388.6 235.8 375.7 223.7 321.8 z M 119.2 810.4 c 0 0 132.5 205.3 439.9 177.1 c 0 0 -109.2 -104.1 -131.7 -137.5 c 0 0 -85.6 21.3 -115.1 -39.5 C 312.3 810.4 201.8 827.2 119.2 810.4 z M 470.6 818.1 c 0 0 21.2 -9.2 29 -60.9 c 0 0 170.8 -60.1 276.1 -221.2 c 0 0 33.3 2.3 56.7 -15.9 c 0 0 79.6 74.5 117.4 171.8 c 0 0 -74.3 212.8 -315 281.2 C 634.8 973.2 526.6 902.5 470.6 818.1 z M 907.4 233.6 c 0 0 124.1 142.9 68.1 385.4 c 0 0 -68.9 -111.5 -103.2 -137.3 c 0 0 30.7 -59.8 -4.6 -103.9 C 867.8 377.7 900.6 313.4 907.4 233.6 z M 384.2 201.9 c 0 0 36.4 29.4 37.8 56.3 c 0 0 153.9 9.6 287.2 93.7 c 0 0 59.6 -49.1 117.1 -12.6 c 0 0 31.7 -58.8 38.3 -166.7 c 0 0 -119.1 -157.1 -367.4 -162.7 C 497.3 9.9 400.4 142.1 384.2 201.9 z M 341.9 391.9 c 0 0 71.6 4.6 83.8 -80.6 c 0 0 141.8 13.2 254.9 80.6 c 0 0 -27.2 86.1 42.9 128.2 c 0 0 -70.7 106.8 -231.6 183.4 c 0 0 -31.8 -74 -115.1 -60.3 C 376.7 643.2 342.8 577.9 341.9 391.9 z" stroke-linecap="round"/>
</g>
</svg>