<svg xmlns="http://www.w3.org/2000/svg" xmlns:xlink="http://www.w3.org/1999/xlink" version="1.1" width="32" height="32" viewBox="0 0 256 256" xml:space="preserve">
<desc>Created with Fabric.js 1.7.22</desc>
<defs>
</defs>
<g transform="translate(128 128) scale(0.72 0.72)" style="">
	<g style="stroke: none; stroke-width: 0; stroke-dasharray: none; stroke-linecap: butt; stroke-linejoin: miter; stroke-miterlimit: 10; fill: none; fill-rule: nonzero; opacity: 1;" transform="translate(-175.05 -175.05000000000004) scale(3.89 3.89)" >
	<circle cx="44.999" cy="40.769000000000005" r="8.319" style="stroke: none; stroke-width: 1; stroke-dasharray: none; stroke-linecap: butt; stroke-linejoin: miter; stroke-miterlimit: 10; fill: rgb(0,193,142); fill-rule: nonzero; opacity: 1;" transform="  matrix(1 0 0 1 0 0) "/>
	<path d="M 29.002 67.355 C 30.051 59.462 36.825 53.353 45 53.353 c 8.175 0 14.95 6.11 15.998 14.003 C 50.332 77.523 39.667 77.523 29.002 67.355 z" style="stroke: none; stroke-width: 1; stroke-dasharray: none; stroke-linecap: butt; stroke-linejoin: miter; stroke-miterlimit: 10; fill: rgb(0,193,142); fill-rule: nonzero; opacity: 1;" transform=" matrix(1 0 0 1 0 0) " stroke-linecap="round" />
	<path d="M 45 75.996 c -5.576 0 -11.151 -2.639 -16.688 -7.918 l -0.368 -0.351 l 0.067 -0.505 c 1.126 -8.478 8.43 -14.87 16.989 -14.87 c 8.559 0 15.862 6.394 16.989 14.871 l 0.067 0.505 l -0.368 0.351 C 56.152 73.356 50.575 75.996 45 75.996 z M 30.069 66.985 c 10.042 9.348 19.82 9.347 29.863 0.001 C 58.722 59.748 52.391 54.353 45 54.353 C 37.609 54.353 31.278 59.748 30.069 66.985 z" style="stroke: none; stroke-width: 1; stroke-dasharray: none; stroke-linecap: butt; stroke-linejoin: miter; stroke-miterlimit: 10; fill: rgb(0,0,0); fill-rule: nonzero; opacity: 1;" transform=" matrix(1 0 0 1 0 0) " stroke-linecap="round" />
	<path d="M 82.096 32.816 c -2.625 0 -4.979 -1.51 -6.185 -3.841 c -0.24 -0.465 -0.493 -0.926 -0.757 -1.384 c -0.264 -0.458 -0.538 -0.907 -0.82 -1.348 c -1.416 -2.21 -1.547 -5.004 -0.234 -7.277 l 0 0 c 1.906 -3.302 0.775 -7.524 -2.527 -9.431 l -9.145 -5.28 c -3.302 -1.906 -7.524 -0.775 -9.431 2.527 l -0.002 0.003 c -1.293 2.24 -3.729 3.56 -6.312 3.434 c -1.122 -0.055 -2.25 -0.055 -3.378 0 c -2.579 0.125 -5.009 -1.199 -6.3 -3.435 l -0.001 -0.002 c -1.906 -3.302 -6.129 -4.434 -9.431 -2.527 l -9.145 5.28 c -3.302 1.906 -4.433 6.129 -2.527 9.431 l 0.001 0.002 c 1.291 2.236 1.222 5.003 -0.175 7.173 c -0.611 0.95 -1.175 1.926 -1.689 2.926 c -1.183 2.3 -3.544 3.75 -6.13 3.75 H 7.904 C 4.091 32.816 1 35.907 1 39.72 V 50.28 c 0 3.813 3.091 6.904 6.904 6.904 l 0 0 c 2.625 0 4.979 1.51 6.185 3.841 c 0.24 0.465 0.493 0.926 0.757 1.384 c 0.264 0.458 0.538 0.907 0.82 1.348 c 1.416 2.21 1.547 5.004 0.234 7.277 c -1.906 3.302 -0.775 7.524 2.527 9.431 l 9.145 5.28 c 3.302 1.906 7.524 0.775 9.431 -2.527 l 0.002 -0.003 c 1.293 -2.24 3.729 -3.56 6.312 -3.434 c 1.122 0.055 2.25 0.055 3.378 0.001 c 2.578 -0.125 5.009 1.199 6.3 3.435 l 0.001 0.002 c 1.906 3.302 6.129 4.433 9.431 2.527 l 9.145 -5.28 c 3.302 -1.906 4.433 -6.129 2.527 -9.431 l -0.001 -0.002 c -1.291 -2.236 -1.222 -5.003 0.175 -7.173 c 0.612 -0.95 1.175 -1.926 1.689 -2.926 c 1.183 -2.3 3.544 -3.75 6.13 -3.75 h 0.003 c 3.813 0 6.904 -3.091 6.904 -6.904 l 0 -10.559 C 89 35.907 85.909 32.816 82.096 32.816 z M 45 72.499 c -15.164 0 -27.5 -12.336 -27.5 -27.5 S 29.836 17.5 45 17.5 c 15.164 0 27.5 12.336 27.5 27.5 S 60.163 72.499 45 72.499 z" style="stroke: none; stroke-width: 1; stroke-dasharray: none; stroke-linecap: butt; stroke-linejoin: miter; stroke-miterlimit: 10; fill: rgb(0,142,135); fill-rule: nonzero; opacity: 1;" transform=" matrix(1 0 0 1 0 0) " stroke-linecap="round" />
	<path d="M 45 50.083 c -5.138 0 -9.318 -4.18 -9.318 -9.319 c 0 -5.138 4.18 -9.318 9.318 -9.318 c 5.138 0 9.318 4.18 9.318 9.318 C 54.318 45.903 50.138 50.083 45 50.083 z M 45 33.446 c -4.035 0 -7.318 3.283 -7.318 7.318 c 0 4.036 3.283 7.319 7.318 7.319 s 7.318 -3.283 7.318 -7.319 C 52.318 36.729 49.035 33.446 45 33.446 z" style="stroke: none; stroke-width: 1; stroke-dasharray: none; stroke-linecap: butt; stroke-linejoin: miter; stroke-miterlimit: 10; fill: rgb(0,0,0); fill-rule: nonzero; opacity: 1;" transform=" matrix(1 0 0 1 0 0) " stroke-linecap="round" />
	<path d="M 58.989 87.673 c -0.687 0 -1.378 -0.09 -2.059 -0.272 c -2.04 -0.547 -3.744 -1.854 -4.8 -3.683 c -1.107 -1.92 -3.182 -3.044 -5.387 -2.938 c -1.156 0.055 -2.325 0.055 -3.476 0 c -2.22 -0.104 -4.29 1.016 -5.397 2.935 c -2.181 3.777 -7.023 5.077 -10.799 2.896 l -9.145 -5.28 c -3.774 -2.179 -5.072 -7.022 -2.894 -10.797 c 1.107 -1.918 1.027 -4.308 -0.209 -6.238 c -0.291 -0.452 -0.572 -0.915 -0.845 -1.387 s -0.532 -0.946 -0.779 -1.425 c -1.053 -2.036 -3.083 -3.301 -5.297 -3.301 C 3.545 58.184 0 54.638 0 50.279 V 39.72 c 0 -4.358 3.545 -7.904 7.904 -7.904 c 2.219 0 4.228 -1.229 5.245 -3.207 c 0.53 -1.03 1.114 -2.043 1.737 -3.01 c 1.2 -1.864 1.257 -4.214 0.15 -6.132 c -1.057 -1.831 -1.337 -3.96 -0.791 -6 c 0.546 -2.04 1.854 -3.744 3.683 -4.8 l 9.145 -5.28 c 3.774 -2.177 8.617 -0.881 10.797 2.894 c 1.109 1.92 3.172 3.042 5.387 2.938 c 1.152 -0.057 2.32 -0.055 3.475 0 c 2.229 0.113 4.29 -1.016 5.397 -2.935 c 1.058 -1.831 2.762 -3.139 4.802 -3.686 c 2.037 -0.547 4.169 -0.266 5.997 0.789 l 9.145 5.28 c 3.774 2.18 5.072 7.023 2.894 10.797 c -1.107 1.917 -1.026 4.307 0.21 6.237 c 0.291 0.454 0.572 0.916 0.845 1.387 c 0.271 0.472 0.532 0.947 0.779 1.426 c 1.053 2.036 3.082 3.3 5.296 3.3 c 4.358 0 7.904 3.545 7.904 7.904 v 10.559 c 0 4.358 -3.546 7.904 -7.904 7.904 c -2.219 0 -4.228 1.229 -5.244 3.207 c -0.527 1.024 -1.111 2.037 -1.737 3.01 c -1.2 1.864 -1.258 4.214 -0.149 6.132 c 1.057 1.83 1.337 3.96 0.79 5.999 c -0.547 2.04 -1.854 3.744 -3.683 4.8 l -9.145 5.28 C 61.71 87.314 60.358 87.673 58.989 87.673 z M 47.036 78.773 c 2.817 0 5.407 1.485 6.826 3.942 c 1.628 2.821 5.245 3.79 8.065 2.163 l 9.145 -5.28 c 2.819 -1.628 3.789 -5.245 2.161 -8.064 c -1.485 -2.572 -1.408 -5.72 0.199 -8.216 c 0.591 -0.919 1.143 -1.875 1.64 -2.842 c 1.361 -2.648 4.052 -4.293 7.021 -4.293 c 3.259 0 5.907 -2.648 5.907 -5.904 V 39.72 c 0 -3.255 -2.648 -5.904 -5.904 -5.904 c -2.965 0 -5.675 -1.679 -7.073 -4.382 c -0.233 -0.452 -0.479 -0.9 -0.734 -1.344 c -0.257 -0.444 -0.522 -0.88 -0.796 -1.309 c -1.642 -2.562 -1.741 -5.749 -0.259 -8.316 c 1.628 -2.819 0.658 -6.437 -2.161 -8.065 l -9.145 -5.28 c -1.364 -0.789 -2.955 -0.997 -4.479 -0.59 c -1.523 0.408 -2.797 1.385 -3.585 2.751 c -1.487 2.574 -4.262 4.082 -7.229 3.936 c -1.09 -0.054 -2.193 -0.054 -3.281 0 c -2.961 0.145 -5.731 -1.364 -7.214 -3.934 c -1.628 -2.822 -5.248 -3.79 -8.066 -2.163 l -9.145 5.28 c -1.366 0.789 -2.343 2.062 -2.751 3.585 c -0.408 1.523 -0.198 3.114 0.59 4.48 c 1.484 2.572 1.408 5.72 -0.2 8.217 c -0.588 0.913 -1.14 1.869 -1.641 2.842 c -1.361 2.647 -4.051 4.292 -7.02 4.292 C 4.648 33.816 2 36.465 2 39.72 v 10.559 c 0 3.256 2.648 5.904 5.904 5.904 c 2.965 0 5.675 1.68 7.073 4.383 c 0.233 0.451 0.479 0.898 0.735 1.343 s 0.522 0.88 0.796 1.308 c 1.642 2.563 1.741 5.749 0.259 8.317 c -1.627 2.819 -0.658 6.438 2.161 8.064 l 9.145 5.28 c 2.82 1.627 6.438 0.657 8.064 -2.161 c 1.486 -2.574 4.25 -4.071 7.229 -3.936 c 1.085 0.052 2.19 0.052 3.28 0 C 46.777 78.776 46.907 78.773 47.036 78.773 z M 45 73.499 c -15.715 0 -28.5 -12.784 -28.5 -28.499 S 29.285 16.5 45 16.5 c 15.715 0 28.5 12.785 28.5 28.5 S 60.715 73.499 45 73.499 z M 45 18.5 c -14.612 0 -26.5 11.888 -26.5 26.5 c 0 14.611 11.888 26.499 26.5 26.499 c 14.613 0 26.5 -11.888 26.5 -26.499 C 71.5 30.388 59.612 18.5 45 18.5 z" style="stroke: none; stroke-width: 1; stroke-dasharray: none; stroke-linecap: butt; stroke-linejoin: miter; stroke-miterlimit: 10; fill: rgb(0,0,0); fill-rule: nonzero; opacity: 1;" transform=" matrix(1 0 0 1 0 0) " stroke-linecap="round" />
</g>
</g>
</svg>