<svg width="32" height="32" xmlns="http://www.w3.org/2000/svg" clip-rule="evenodd" xml:space="preserve" version="1.1" style="fill-rule:evenodd;clip-rule:evenodd;stroke-linejoin:round;stroke-miterlimit:2;">

 <g>
  <title>background</title>
  <rect fill="none" id="canvas_background" height="34" width="34" y="-1" x="-1"/>
 </g>
 <g>
  <title>Layer 1</title>
  <rect stroke="#7f7b7b" id="svg_2" height="11.499798" width="12.124786" y="10.306736" x="10.3126" fill="none"/>
  <path transform="rotate(135.43795776367188 25.126224517822266,7.088232040405273) " id="svg_3" d="m23.639257,10.040753c-0.350458,-0.164203 -0.304478,-0.263636 0.547591,-1.184096c0.430254,-0.464785 0.782276,-0.85857 0.782276,-0.875078c0,-0.016507 -1.188078,-0.030013 -2.640181,-0.030013l-2.640181,0l0,-0.870495l0,-0.870495l2.661106,0c2.051862,0 2.638199,-0.026224 2.561066,-0.114539c-0.055021,-0.062996 -0.43035,-0.481029 -0.834063,-0.92896c-0.761005,-0.844361 -0.760766,-1.070798 0.001176,-1.140985c0.37919,-0.034929 6.282725,2.64879 6.485642,2.948344c-1.966416,1.06957 -4.31695,2.189136 -6.482174,3.176276c-0.114167,0 -0.31318,-0.049481 -0.442256,-0.109958l0,0z" fill="#633f2a"/>
  <path transform="rotate(46.08647155761719 7.001357078552244,7.213227272033693) " id="svg_4" d="m5.514389,10.165748c-0.350458,-0.164202 -0.304478,-0.263635 0.547591,-1.184095c0.430253,-0.464785 0.782276,-0.85857 0.782276,-0.875078c0,-0.016507 -1.188078,-0.030014 -2.640181,-0.030014l-2.640181,0l0,-0.870495l0,-0.870495l2.661106,0c2.051862,0 2.638198,-0.026223 2.561065,-0.114539c-0.055021,-0.062996 -0.43035,-0.481029 -0.834063,-0.92896c-0.761005,-0.844361 -0.760766,-1.070798 0.001176,-1.140985c0.37919,-0.034929 6.282725,2.64879 6.485642,2.948344c-1.966416,1.06957 -4.31695,2.189136 -6.482174,3.176275c-0.114168,0 -0.31318,-0.049481 -0.442256,-0.109958l-0.000001,0z" fill="#633f2a"/>
  <path transform="rotate(-135.79042053222656 25.251216888427734,24.46308898925781) " id="svg_5" d="m23.764249,27.415611c-0.350458,-0.164202 -0.304478,-0.263635 0.547591,-1.184095c0.430253,-0.464785 0.782276,-0.85857 0.782276,-0.875078c0,-0.016507 -1.188078,-0.030014 -2.640181,-0.030014l-2.640181,0l0,-0.870495l0,-0.870495l2.661106,0c2.051862,0 2.638198,-0.026223 2.561065,-0.114539c-0.055021,-0.062996 -0.43035,-0.481029 -0.834063,-0.92896c-0.761005,-0.844361 -0.760766,-1.070798 0.001176,-1.140985c0.37919,-0.034929 6.282725,2.64879 6.485642,2.948344c-1.966416,1.06957 -4.31695,2.189136 -6.482174,3.176275c-0.114168,0 -0.31318,-0.049481 -0.442256,-0.109958l-0.000001,0z" fill="#633f2a"/>
  <path transform="rotate(-43.11400604248047 7.376354217529292,24.963071823120117) " id="svg_6" d="m5.889386,27.915594c-0.350458,-0.164202 -0.304478,-0.263635 0.547591,-1.184095c0.430253,-0.464785 0.782276,-0.85857 0.782276,-0.875078c0,-0.016507 -1.188078,-0.030014 -2.640181,-0.030014l-2.640181,0l0,-0.870495l0,-0.870495l2.661106,0c2.051862,0 2.638198,-0.026223 2.561065,-0.114539c-0.055021,-0.062996 -0.43035,-0.481029 -0.834063,-0.92896c-0.761005,-0.844361 -0.760766,-1.070798 0.001176,-1.140985c0.37919,-0.034929 6.282725,2.64879 6.485642,2.948344c-1.966416,1.06957 -4.31695,2.189136 -6.482174,3.176275c-0.114168,0 -0.31318,-0.049481 -0.442256,-0.109958l-0.000001,0z" fill="#633f2a"/>
  <rect stroke="#e50d0d" stroke-width="2" id="svg_1" height="26.374539" width="27.124545" y="2.681871" x="2.521063" fill="none"/>
 </g>
</svg>