<svg xmlns="http://www.w3.org/2000/svg" xmlns:xlink="http://www.w3.org/1999/xlink" version="1.1" width="32" height="32" viewBox="0 0 256 256" xml:space="preserve">
<desc>Created with Fabric.js 1.7.22</desc>
<defs>
</defs>
<g transform="translate(128 128) scale(0.72 0.72)" style="">
	<g style="stroke: none; stroke-width: 0; stroke-dasharray: none; stroke-linecap: butt; stroke-linejoin: miter; stroke-miterlimit: 10; fill: none; fill-rule: nonzero; opacity: 1;" transform="translate(-175.05 -175.05000000000004) scale(3.89 3.89)" >
	<circle cx="45" cy="45" r="45" style="stroke: none; stroke-width: 1; stroke-dasharray: none; stroke-linecap: butt; stroke-linejoin: miter; stroke-miterlimit: 10; fill: rgb(32,196,203); fill-rule: nonzero; opacity: 1;" transform="  matrix(1 0 0 1 0 0) "/>
	<path d="M 59.017 40.03 c -2.316 -7.284 -9.132 -12.563 -17.184 -12.563 S 26.965 32.746 24.649 40.03 C 18.269 41.603 13.5 47.388 13.5 54.236 v 0 c 0 8.047 6.584 14.63 14.63 14.63 h 27.406 c 8.047 0 14.63 -6.584 14.63 -14.63 v 0 C 70.167 47.388 65.397 41.603 59.017 40.03 z M 51.667 49.295 c -1.213 1.213 -3.198 1.213 -4.411 0 l -2.303 -2.303 v 12.174 c 0 1.715 -1.404 3.119 -3.119 3.119 c -1.715 0 -3.119 -1.404 -3.119 -3.119 V 46.991 l -2.303 2.303 c -1.213 1.213 -3.198 1.213 -4.411 0 c -1.213 -1.213 -1.213 -3.198 0 -4.411 l 7.591 -7.591 c 0.012 -0.013 0.021 -0.028 0.033 -0.041 c 0.434 -0.434 0.968 -0.706 1.528 -0.829 c 0.02 -0.005 0.039 -0.013 0.059 -0.017 c 0.205 -0.041 0.412 -0.063 0.62 -0.063 c 0.001 0 0.001 0 0.002 0 s 0.001 0 0.002 0 c 0.208 0 0.415 0.022 0.62 0.063 c 0.02 0.004 0.039 0.013 0.059 0.017 c 0.561 0.123 1.095 0.395 1.528 0.829 c 0.013 0.013 0.021 0.028 0.033 0.041 l 7.591 7.591 C 52.88 46.097 52.88 48.082 51.667 49.295 z" style="stroke: none; stroke-width: 1; stroke-dasharray: none; stroke-linecap: butt; stroke-linejoin: miter; stroke-miterlimit: 10; fill: rgb(27,167,173); fill-rule: nonzero; opacity: 1;" transform=" matrix(1 0 0 1 0 0) " stroke-linecap="round" />
	<path d="M 62.351 36.697 c -2.316 -7.284 -9.132 -12.563 -17.184 -12.563 s -14.868 5.279 -17.184 12.563 c -6.38 1.573 -11.149 7.358 -11.149 14.206 v 0 c 0 8.047 6.584 14.63 14.63 14.63 H 58.87 c 8.047 0 14.63 -6.584 14.63 -14.63 v 0 C 73.5 44.055 68.731 38.269 62.351 36.697 z M 55 45.961 c -1.213 1.213 -3.198 1.213 -4.411 0 l -2.303 -2.303 v 12.174 c 0 1.715 -1.404 3.119 -3.119 3.119 c -1.715 0 -3.119 -1.404 -3.119 -3.119 V 43.658 l -2.303 2.303 c -1.213 1.213 -3.198 1.213 -4.411 0 c -1.213 -1.213 -1.213 -3.198 0 -4.411 l 7.591 -7.591 c 0.012 -0.013 0.021 -0.028 0.033 -0.041 c 0.434 -0.434 0.968 -0.706 1.528 -0.829 c 0.02 -0.005 0.039 -0.013 0.059 -0.017 c 0.205 -0.041 0.412 -0.063 0.62 -0.063 c 0.001 0 0.001 0 0.002 0 s 0.001 0 0.002 0 c 0.208 0 0.415 0.022 0.62 0.063 c 0.02 0.004 0.039 0.013 0.059 0.017 c 0.561 0.123 1.095 0.395 1.528 0.829 c 0.013 0.013 0.021 0.028 0.033 0.041 L 55 41.55 C 56.213 42.763 56.213 44.748 55 45.961 z" style="stroke: none; stroke-width: 1; stroke-dasharray: none; stroke-linecap: butt; stroke-linejoin: miter; stroke-miterlimit: 10; fill: rgb(255,255,255); fill-rule: nonzero; opacity: 1;" transform=" matrix(1 0 0 1 0 0) " stroke-linecap="round" />
</g>
</g>
</svg>