<svg width="32" height="32" xmlns="http://www.w3.org/2000/svg">
 <defs>
  <linearGradient y2="0.85355" y1="0.14645" x2="0.85355" x1="0.14645" id="ardn4qMWM6qJppYdTWAANa">
   <stop stop-color="#889097" offset="0"/>
   <stop stop-color="#64717c" offset="1"/>
  </linearGradient>
  <radialGradient gradientUnits="userSpaceOnUse" r="18.5" cy="24" cx="24" id="ardn4qMWM6qJppYdTWAANb">
   <stop offset="0"/>
   <stop stop-opacity="0" offset="1"/>
  </radialGradient>
  <radialGradient gradientUnits="userSpaceOnUse" r="37.883" cy="7.394" cx="23.89" id="ardn4qMWM6qJppYdTWAANc">
   <stop stop-color="#fafafb" offset="0"/>
   <stop stop-color="#c8cdd1" offset="1"/>
  </radialGradient>
  <linearGradient y2="1.0516" y1="0.012033" x2="0.5573" x1="0.4493" id="ardn4qMWM6qJppYdTWAANd">
   <stop stop-color="#c8cdd1" offset="0"/>
   <stop stop-color="#a6aaad" offset="1"/>
  </linearGradient>
 </defs>
 <g>
  <title>background</title>
  <rect fill="none" id="canvas_background" height="879" width="34" y="-1" x="-1"/>
 </g>
 <g transform="translate(0 0) scale(0.66 0.66)">
  <title>Layer 1</title>
  <circle id="svg_1" fill="url(#ardn4qMWM6qJppYdTWAANa)" r="20" cy="24" cx="24"/>
  <circle id="svg_2" fill="url(#ardn4qMWM6qJppYdTWAANb)" r="18.5" cy="24" cx="24"/>
  <circle id="svg_3" fill="url(#ardn4qMWM6qJppYdTWAANc)" r="17" cy="24" cx="24"/>
  <path id="svg_4" d="m25,10c0,0.552 -0.448,1 -1,1s-1,-0.448 -1,-1c0,-0.552 0.448,-1 1,-1s1,0.448 1,1zm-1,27c-0.552,0 -1,0.448 -1,1c0,0.552 0.448,1 1,1s1,-0.448 1,-1c0,-0.552 -0.448,-1 -1,-1zm14,-14c-0.552,0 -1,0.448 -1,1c0,0.552 0.448,1 1,1s1,-0.448 1,-1c0,-0.552 -0.448,-1 -1,-1zm-28,0c-0.552,0 -1,0.448 -1,1c0,0.552 0.448,1 1,1s1,-0.448 1,-1c0,-0.552 -0.448,-1 -1,-1z" fill="url(#ardn4qMWM6qJppYdTWAANd)"/>
  <path id="svg_5" d="m24,34.75c-0.414,0 -0.75,-0.336 -0.75,-0.75l0,-10c0,-0.414 0.336,-0.75 0.75,-0.75s0.75,0.336 0.75,0.75l0,10c0,0.414 -0.336,0.75 -0.75,0.75z" fill="#d83b01"/>
  <path id="svg_6" d="m24,24.75c-0.192,0 -0.384,-0.073 -0.53,-0.22c-0.293,-0.293 -0.293,-0.768 0,-1.061l8.485,-8.485c0.293,-0.293 0.768,-0.293 1.061,0s0.293,0.768 0,1.061l-8.486,8.485c-0.146,0.147 -0.338,0.22 -0.53,0.22z" fill="#45494d"/>
  <path id="svg_7" d="m23.999,25.25c-0.181,0 -0.365,-0.039 -0.54,-0.123l-7.787,-3.735c-0.623,-0.299 -0.885,-1.045 -0.586,-1.668c0.298,-0.622 1.045,-0.887 1.667,-0.586l7.787,3.735c0.623,0.299 0.885,1.045 0.586,1.668c-0.214,0.447 -0.661,0.709 -1.127,0.709z" fill="#45494d"/>
  <circle id="svg_8" fill="#1e2021" r="2" cy="24" cx="24"/>
  <desc transform="matrix(0.1406282410212336,0,0,0.1406282410212336,0,0) ">Created with Fabric.js 1.7.22</desc>

  <g stroke="null" id="svg_20">
   <g stroke="null" id="svg_12" transform="matrix(0.12243321978568812,0,0,0.12077021739480231,16.74536455738722,15.760584715057075) ">
    <g stroke=" none" id="svg_13" transform="translate(-175.0500030517578,-175.0500030517578) scale(3.890000104904175) ">
     <path fill="#ffaa56" stroke=" none" id="svg_14" stroke-linecap="round" d="m60.065173,105.232644c-23.422,0 -42.478,-19.056 -42.478,-42.479c0,-23.422 19.056,-42.477 42.478,-42.477c1.657,0 3,1.343 3,3s-1.343,3 -3,3c-20.114,0 -36.478,16.364 -36.478,36.478c0,20.114 16.364,36.478 36.478,36.478c1.657,0 3,1.343 3,3s-1.343,3 -3,3z"/>
     <path stroke=" none" id="svg_15" stroke-linecap="round" d="m69.543837,27.380644c-0.233,0 -0.472,-0.027 -0.709,-0.085l-0.454,-0.107c-1.615,-0.37 -2.624,-1.979 -2.254,-3.594c0.371,-1.616 1.985,-2.624 3.594,-2.254l0.528,0.125c1.61,0.391 2.599,2.012 2.208,3.623c-0.332,1.372 -1.561,2.292 -2.913,2.292z"/>
     <path fill="#666666" stroke=" none" id="svg_16" stroke-linecap="round" d="m78.583837,100.719644c-1.079,0 -2.121,-0.584 -2.658,-1.604c-0.771,-1.467 -0.207,-3.281 1.259,-4.052c0.263,-0.138 0.523,-0.279 0.782,-0.424c1.448,-0.808 3.274,-0.287 4.081,1.159c0.807,1.447 0.288,3.274 -1.159,4.081c-0.302,0.168 -0.605,0.333 -0.911,0.494c-0.446,0.235 -0.925,0.346 -1.394,0.346zm8.621,-6.135c-0.801,0 -1.599,-0.318 -2.189,-0.948c-1.134,-1.209 -1.072,-3.107 0.137,-4.24c0.217,-0.204 0.433,-0.41 0.645,-0.619c1.183,-1.162 3.081,-1.145 4.243,0.036c1.161,1.182 1.145,3.081 -0.036,4.243c-0.247,0.242 -0.496,0.481 -0.748,0.717c-0.581,0.542 -1.317,0.811 -2.052,0.811zm6.691,-8.203c-0.534,0 -1.074,-0.143 -1.563,-0.441c-1.413,-0.865 -1.857,-2.712 -0.992,-4.125c0.156,-0.256 0.311,-0.513 0.461,-0.772c0.834,-1.432 2.672,-1.916 4.103,-1.083c1.432,0.834 1.916,2.671 1.083,4.103c-0.174,0.297 -0.35,0.593 -0.529,0.886c-0.567,0.923 -1.553,1.432 -2.563,1.432zm4.28,-9.683c-0.271,0 -0.548,-0.037 -0.821,-0.115c-1.594,-0.452 -2.52,-2.111 -2.066,-3.705c0.082,-0.29 0.163,-0.583 0.24,-0.876c0.421,-1.602 2.056,-2.562 3.663,-2.14c1.603,0.42 2.561,2.061 2.14,3.663c-0.087,0.332 -0.178,0.662 -0.271,0.991c-0.376,1.32 -1.578,2.182 -2.885,2.182zm1.533,-10.48c-0.013,0 -0.026,0 -0.039,0c-1.656,-0.021 -2.982,-1.381 -2.962,-3.038l0.003,-0.427l-0.003,-0.465c-0.02,-1.657 1.309,-3.016 2.965,-3.035c0.012,0 0.024,0 0.036,0c1.641,0 2.979,1.32 2.999,2.965l0.003,0.535l-0.003,0.503c-0.022,1.644 -1.361,2.962 -2.999,2.962zm-1.289,-10.506c-1.329,0 -2.544,-0.89 -2.898,-2.236c-0.076,-0.289 -0.155,-0.575 -0.237,-0.86c-0.46,-1.592 0.457,-3.255 2.049,-3.715c1.595,-0.46 3.256,0.458 3.715,2.05c0.096,0.33 0.187,0.662 0.274,0.995c0.423,1.602 -0.533,3.244 -2.136,3.666c-0.257,0.067 -0.515,0.1 -0.767,0.1zm-4.035,-9.779c-1.033,0 -2.038,-0.534 -2.596,-1.491c-0.149,-0.258 -0.303,-0.514 -0.459,-0.767c-0.867,-1.412 -0.426,-3.259 0.986,-4.126c1.412,-0.867 3.261,-0.425 4.127,0.986c0.18,0.293 0.356,0.589 0.531,0.888c0.833,1.432 0.349,3.268 -1.083,4.102c-0.473,0.277 -0.993,0.408 -1.506,0.408zm-6.502,-8.356c-0.759,0 -1.517,-0.286 -2.101,-0.858c-0.212,-0.208 -0.427,-0.413 -0.644,-0.616c-1.212,-1.131 -1.276,-3.029 -0.146,-4.24c1.129,-1.21 3.028,-1.277 4.239,-0.146c0.254,0.236 0.504,0.476 0.751,0.719c1.183,1.16 1.201,3.06 0.041,4.242c-0.585,0.598 -1.362,0.899 -2.14,0.899zm-8.48,-6.34c-0.492,0 -0.992,-0.122 -1.454,-0.378c-0.262,-0.146 -0.524,-0.288 -0.789,-0.427c-1.467,-0.771 -2.031,-2.584 -1.26,-4.051c0.771,-1.465 2.582,-2.032 4.051,-1.259c0.306,0.161 0.609,0.325 0.911,0.493c1.449,0.804 1.971,2.631 1.167,4.079c-0.549,0.986 -1.571,1.543 -2.626,1.543z"/>
     <path stroke=" none" id="svg_17" stroke-linecap="round" d="m69.047837,104.245644c-1.367,0 -2.604,-0.941 -2.922,-2.332c-0.369,-1.614 0.641,-3.224 2.255,-3.594l0.453,-0.107c1.606,-0.385 3.23,0.603 3.62,2.214c0.388,1.611 -0.604,3.231 -2.214,3.62l-0.52,0.123c-0.224,0.05 -0.45,0.076 -0.672,0.076z"/>
     <path fill="#ff7f00" stroke=" none" id="svg_19" stroke-linecap="round" d="m55.185837,32.524644c-0.662,0 -1.328,-0.218 -1.882,-0.666c-1.29,-1.041 -1.491,-2.929 -0.45,-4.219l3.159,-3.913l-3.914,-3.16c-1.289,-1.041 -1.49,-2.929 -0.449,-4.219c1.041,-1.289 2.929,-1.491 4.219,-0.449l6.248,5.044c1.289,1.041 1.49,2.929 0.449,4.219l-5.044,6.248c-0.592,0.733 -1.46,1.115 -2.336,1.115z"/>
    </g>
   </g>
  </g>
 </g>
</svg>